<?xml version="1.0" standalone="no"?>
<!DOCTYPE svg PUBLIC "-//W3C//DTD SVG 1.1//EN" "http://www.w3.org/Graphics/SVG/1.1/DTD/svg11.dtd" >
<svg>
<metadata>
Created by FontForge 20090622 at Wed Nov 23 10:48:35 2016
 By ffonts
1.2, Copyright Copr. Castcraft Software, Inc. 1990-1991.
</metadata>
<defs>
<font id="OPTIStainesXtraBoldExtend" horiz-adv-x="960" >
  <font-face 
    font-family="OPTIStainesXtraBoldExtend"
    font-weight="700"
    font-stretch="normal"
    units-per-em="1000"
    panose-1="0 0 0 0 0 0 0 0 0 0"
    ascent="800"
    descent="-200"
    x-height="581"
    cap-height="798"
    bbox="-17 -285.407 1426 1190.83"
    underline-thickness="61"
    underline-position="-82"
    stemh="195"
    stemv="289"
    unicode-range="U+0020-U+FB02"
  />
<missing-glyph horiz-adv-x="280" 
 />
    <glyph glyph-name=".notdef" horiz-adv-x="280" 
 />
    <glyph glyph-name="space" unicode=" " horiz-adv-x="223" 
d="M0 0z" />
    <glyph glyph-name="exclam" unicode="!" horiz-adv-x="415" 
d="M350 798v-206l-30 -305h-232l-27 305v206h289zM350 196v-196h-289v196h289z" />
    <glyph glyph-name="quotedbl" unicode="&#x22;" horiz-adv-x="377" 
d="M123 480h-29l-31 167c-5 29 -30 119 -2 157c10 14 27 21 47 20c19 0 35 -6 47 -26c24 -32 6 -102 -2 -144zM281 480h-30l-30 167c-6 29 -30 119 -1 157c10 14 27 21 47 20c18 0 34 -6 47 -26c23 -32 5 -102 -3 -144z" />
    <glyph glyph-name="numbersign" unicode="#" horiz-adv-x="829" 
d="M362 750h115l-76 -214h121l76 214h116l-76 -214h142l-34 -97h-142l-46 -128h142l-35 -97h-142l-75 -214h-117l76 214h-121l-76 -214h-116l77 214h-142l35 97h141l45 128h-141l35 97h141zM320 311h122l46 128h-122z" />
    <glyph glyph-name="dollar" unicode="$" horiz-adv-x="964" 
d="M540 855v-77c162 -3 336 -41 365 -248v-4h-259c-17 50 -42 76 -106 84v-120l96 -10c72 -7 235 -20 280 -137c23 -58 16 -149 -41 -211c-94 -104 -228 -126 -331 -138v-130h-88v129c-87 10 -290 29 -379 173c-29 47 -31 67 -31 104h275l2 -5c24 -65 65 -83 131 -92v152
l-145 20c-65 8 -174 15 -226 105c-28 49 -28 109 -6 163c37 88 127 125 195 144c64 16 105 21 181 22v76h87zM353 576c-10 -17 -8 -30 -4 -39c18 -35 84 -38 104 -38v113c-42 0 -81 -3 -100 -36zM544 174c8 0 14 0 22 2c12 4 19 6 21 7c19 10 32 23 40 36c14 23 14 46 6 60
c-17 36 -56 38 -89 40v-145z" />
    <glyph glyph-name="percent" unicode="%" horiz-adv-x="1124" 
d="M807 122c12 -26 30 -39 50 -43c20 -3 39 2 55 18c24 26 23 89 20 111c-6 33 -19 55 -45 67c-18 8 -38 6 -52 -3c-48 -29 -37 -129 -28 -150zM826 373c30 3 165 6 222 -64c38 -47 44 -156 28 -203c-20 -67 -55 -90 -122 -109c-58 -16 -188 -19 -252 38
c-61 54 -60 141 -52 192c8 55 35 98 96 126c24 11 52 16 80 20zM835 773l-315 -773h-220l317 773h218zM208 530c12 -26 30 -39 50 -42c20 -4 39 2 55 18c24 25 23 89 20 110c-6 34 -19 56 -45 67c-18 9 -38 7 -53 -2c-47 -29 -36 -130 -27 -151zM227 781c30 4 165 7 222 -63
c38 -47 43 -157 28 -203c-21 -67 -55 -91 -122 -110c-58 -15 -189 -19 -252 38c-62 55 -61 142 -53 192c9 56 36 98 96 126c25 11 53 17 81 20z" />
    <glyph glyph-name="ampersand" unicode="&#x26;" horiz-adv-x="1025" 
d="M661 373l85 -92c29 24 40 54 40 54h212c-26 -59 -86 -134 -136 -180l138 -155h-306l-36 30c-142 -47 -380 -84 -517 14c-68 48 -102 112 -102 178c0 61 22 121 90 168c56 39 83 44 156 65c-46 61 -52 119 -28 168c47 95 178 110 242 114c58 2 252 -10 311 -114
c27 -47 26 -112 -4 -161c-38 -58 -89 -77 -145 -89zM499 549c8 -26 41 -58 55 -67c13 2 50 21 59 29c14 15 21 34 16 52c-5 25 -24 43 -46 52s-48 2 -65 -10c-21 -17 -25 -38 -19 -56zM331 302c-22 -15 -31 -33 -31 -51c0 -27 19 -51 49 -72c53 -37 128 -29 181 -8l-138 148
c-34 -4 -48 -9 -61 -17z" />
    <glyph glyph-name="quotesingle" unicode="'" horiz-adv-x="413" 
d="M68 798h289v-23v-81c0 -100 -1 -192 -120 -255c-58 -32 -116 -29 -169 -29v92c32 2 69 13 87 33c6 5 20 22 20 67h-107v196z" />
    <glyph glyph-name="parenleft" unicode="(" horiz-adv-x="479" 
d="M306 904l130 -95c-28 -82 -89 -232 -89 -401c0 -203 44 -367 92 -443l-125 -100c-191 164 -277 410 -246 617c20 133 97 287 238 422z" />
    <glyph glyph-name="parenright" unicode=")" horiz-adv-x="469" 
d="M408 482c32 -207 -54 -453 -245 -617l-125 100c48 76 91 240 91 443c0 169 -61 319 -89 401l131 95c140 -135 217 -289 237 -422z" />
    <glyph glyph-name="asterisk" unicode="*" horiz-adv-x="546" 
d="M331 829l115 -79l-64 -97l115 -32l-41 -140l-118 39v-125h-145v125l-101 -38c-3 0 -48 132 -48 132l107 33l-72 88l112 85l77 -97z" />
    <glyph glyph-name="plus" unicode="+" horiz-adv-x="746" 
d="M294 643h170v-239h239v-166h-239v-238h-170v238h-240v166h240v239z" />
    <glyph glyph-name="comma" unicode="," horiz-adv-x="414" 
d="M59 196h289v-23v-80c0 -101 -1 -192 -120 -256c-58 -31 -116 -29 -169 -29v93c33 2 69 12 87 32c6 6 20 22 20 67h-107v196z" />
    <glyph glyph-name="hyphen" unicode="-" horiz-adv-x="550" 
d="M71 394h414v-198h-414v198z" />
    <glyph glyph-name="period" unicode="." horiz-adv-x="401" 
d="M347 196v-196h-289v196h289z" />
    <glyph glyph-name="slash" unicode="/" horiz-adv-x="614" 
d="M578 773l-315 -773h-219l316 773h218z" />
    <glyph glyph-name="zero" unicode="0" 
d="M401 746c130 12 329 -4 437 -141c79 -102 83 -303 48 -404c-39 -117 -117 -174 -233 -204c-130 -34 -377 -43 -509 77c-107 98 -112 285 -96 381c19 112 61 193 186 249c42 18 112 36 167 42zM336 451c-11 -56 -8 -214 55 -270c39 -34 94 -37 131 -24c65 23 83 72 92 124
c8 40 15 206 -57 266c-39 32 -93 37 -131 22c-61 -22 -79 -68 -90 -118z" />
    <glyph glyph-name="one" unicode="1" 
d="M643 723v-723h-271v477c-14 -6 -48 -27 -124 -41l-8 -1v169c17 4 95 30 160 78c26 20 32 31 42 41h201z" />
    <glyph glyph-name="two" unicode="2" 
d="M65 0c0 158 117 354 348 424l61 19c5 1 106 27 118 69c4 16 0 33 -12 45c-22 23 -126 20 -147 16c-70 -13 -85 -38 -102 -94l-250 21c13 129 166 250 386 250c177 0 310 -20 368 -104c37 -52 53 -142 31 -202c-39 -104 -175 -136 -249 -154l-107 -27
c-25 -5 -62 -19 -75 -24c-30 -15 -64 -39 -63 -54h509v-185h-816z" />
    <glyph glyph-name="three" unicode="3" 
d="M775 385c64 -18 117 -45 139 -116c17 -54 5 -121 -39 -173c-108 -132 -401 -127 -511 -118c-83 6 -256 45 -323 175c-10 21 -12 29 -16 46l272 42c59 -81 138 -94 200 -88c16 1 50 4 78 18c20 10 37 27 46 44c6 15 8 35 -3 52c-25 39 -93 33 -146 33h-220v153h210
c54 0 112 -4 135 28c7 9 12 23 8 40c-6 20 -25 37 -48 46c-26 11 -154 17 -194 -6c-13 -6 -14 -7 -26 -19c-4 -4 -13 -16 -13 -16l-275 15l2 8c29 108 107 155 207 180c127 32 456 43 585 -87c43 -45 54 -105 41 -152c-16 -54 -53 -84 -109 -105z" />
    <glyph glyph-name="four" unicode="4" 
d="M790 723v-10v-411h114v-186h-114v-116h-272v116h-472v200l433 407h311zM289 304h230v215z" />
    <glyph glyph-name="five" unicode="5" 
d="M133 723h739l-27 -166h-505l-14 -98c103 26 401 67 527 -85c57 -69 54 -154 24 -217c-85 -175 -338 -184 -453 -183h-22c-74 0 -266 17 -347 148c-8 12 -25 45 -25 45l259 71c71 -87 145 -98 222 -82c37 8 85 27 96 72c7 21 1 44 -23 66c-52 44 -197 37 -253 15l-18 -9
l-247 25z" />
    <glyph glyph-name="six" unicode="6" 
d="M901 568l-301 -43c-64 46 -135 46 -187 23c-60 -27 -75 -73 -74 -133c131 82 336 91 452 35c81 -38 119 -93 128 -167c8 -65 -7 -145 -84 -212c-120 -101 -408 -113 -524 -79s-204 85 -245 222c-27 88 -26 280 67 390c114 136 356 156 470 142c85 -11 231 -45 298 -178z
M587 165c30 16 44 37 46 59c2 26 -10 48 -30 65c-44 36 -134 35 -180 20c-33 -9 -66 -32 -77 -66c-7 -21 -1 -43 11 -59c34 -42 121 -40 150 -38c26 2 56 6 80 19z" />
    <glyph glyph-name="seven" unicode="7" 
d="M884 723c16 -138 -24 -264 -176 -388l-50 -41c-116 -98 -168 -166 -184 -294h-311c4 167 81 279 271 401l115 71c40 24 41 35 47 74h-512v177h800z" />
    <glyph glyph-name="eight" unicode="8" 
d="M754 383c72 -30 125 -65 142 -146c8 -42 -6 -108 -50 -151c-154 -155 -481 -108 -555 -95c-72 13 -178 53 -222 150c-19 43 -19 105 10 151c33 53 63 64 112 87c-64 29 -111 65 -121 134c-5 47 14 106 68 151c125 103 436 98 543 63c75 -25 161 -73 185 -161
c10 -39 5 -86 -33 -127c-24 -26 -47 -39 -79 -56zM347 526c-3 -20 10 -38 24 -47c36 -25 126 -29 164 -17c29 9 52 26 58 48c3 18 -4 31 -18 45c-38 33 -135 31 -168 21c-29 -9 -54 -19 -60 -50zM345 248c-7 -19 -1 -36 12 -52c37 -41 131 -40 163 -33c36 7 75 22 88 56
c6 14 1 35 -12 51c-39 45 -118 43 -162 34c-32 -6 -78 -21 -89 -56z" />
    <glyph glyph-name="nine" unicode="9" 
d="M63 156l300 44c64 -47 135 -47 187 -24c60 27 75 73 74 133c-131 -81 -336 -90 -452 -34c-80 38 -118 92 -127 166c-9 66 6 145 83 212c120 101 408 114 524 79c116 -33 204 -85 245 -222c27 -88 26 -280 -67 -389c-113 -137 -356 -157 -470 -142
c-84 10 -231 44 -297 177zM376 559c-30 -15 -43 -37 -46 -59c-2 -26 10 -48 30 -65c44 -35 134 -34 180 -20c34 9 66 33 77 66c7 21 1 44 -11 59c-33 43 -121 40 -150 38c-26 -2 -55 -5 -80 -19z" />
    <glyph glyph-name="colon" unicode=":" horiz-adv-x="408" 
d="M353 196v-196h-289v196h289zM353 588v-196h-289v196h289z" />
    <glyph glyph-name="semicolon" unicode=";" horiz-adv-x="408" 
d="M353 588v-196h-289v196h289zM64 196h289v-23v-80c0 -101 -1 -192 -121 -256c-58 -31 -116 -29 -168 -29v93c32 2 69 12 87 32c5 6 20 22 20 67h-107v196z" />
    <glyph glyph-name="less" unicode="&#x3c;" horiz-adv-x="577" 
d="M45 385l484 180v-129l-311 -111l311 -111v-128l-484 180v119z" />
    <glyph glyph-name="equal" unicode="=" horiz-adv-x="891" 
d="M833 546v-167h-776v167h776zM833 269v-166h-776v166h776z" />
    <glyph glyph-name="greater" unicode="&#x3e;" horiz-adv-x="577" 
d="M535 266l-484 -180v128l311 111l-311 111v129l484 -180v-119z" />
    <glyph glyph-name="question" unicode="?" horiz-adv-x="855" 
d="M291 321v9c0 94 10 96 102 143l28 14c13 6 110 44 114 92c2 19 -6 38 -27 53c-30 23 -123 21 -158 9c-59 -22 -68 -55 -78 -114l-236 75c15 102 57 152 158 189c116 44 422 57 545 -47c63 -53 80 -125 71 -180c-14 -90 -82 -129 -181 -168l-23 -8
c-38 -15 -78 -35 -78 -67h-237zM550 196v-196h-289v196h289z" />
    <glyph glyph-name="at" unicode="@" horiz-adv-x="1036" 
d="M606 240c-48 -77 -105 -103 -167 -102c-44 0 -105 22 -141 80c-40 65 -23 175 10 238c44 89 125 150 208 158c35 2 97 -7 128 -49c6 -8 11 -18 18 -32l19 63h138l-68 -234c-5 -25 -38 -116 -17 -140c13 -11 28 -16 52 -11c59 12 93 66 115 123c38 90 42 208 -22 302
c-79 108 -242 134 -328 131c-126 -7 -250 -61 -339 -222c-66 -115 -71 -280 -8 -398c69 -128 190 -177 302 -185c128 -9 238 21 366 97l29 -42c-195 -123 -422 -163 -619 -64v-1c-135 68 -223 203 -235 352c-10 138 33 304 200 424c151 108 384 121 533 57v0
c111 -50 188 -152 204 -270c10 -85 -13 -247 -113 -325c-53 -43 -133 -64 -194 -43c-41 16 -62 43 -71 93zM423 277c-1 -27 4 -48 27 -62c19 -13 44 -11 62 0c67 33 110 201 114 246c2 24 -1 56 -24 72c-17 14 -45 13 -60 8c-74 -31 -118 -225 -119 -264z" />
    <glyph glyph-name="A" unicode="A" horiz-adv-x="1044" 
d="M364 798h313l358 -798h-313l-45 100h-309l-44 -100h-308zM440 305h162l-82 252z" />
    <glyph glyph-name="B" unicode="B" horiz-adv-x="1004" 
d="M59 798h626c76 0 162 -4 219 -90c36 -53 39 -130 19 -178c-21 -51 -50 -77 -109 -101c81 -26 126 -45 154 -132c17 -55 11 -144 -34 -204c-62 -85 -166 -93 -263 -93h-612v798zM510 492c51 0 115 -4 136 30c11 18 8 41 0 53c-19 31 -60 27 -142 27h-156v-110h162z
M348 327v-131h185c56 0 122 -5 146 37c9 17 10 44 -5 64c-23 34 -65 30 -135 30h-191z" />
    <glyph glyph-name="C" unicode="C" horiz-adv-x="1054" 
d="M1030 604l-269 -77c-52 89 -126 116 -201 118c-56 1 -143 -10 -196 -90c-44 -67 -50 -195 -16 -272c36 -80 95 -110 165 -120c57 -8 159 0 215 65c12 13 23 33 34 50l278 -72c-63 -147 -268 -217 -369 -227c-160 -16 -421 0 -565 173c-85 101 -90 282 -56 390
c53 161 199 238 324 265c168 37 442 19 595 -131c30 -29 41 -42 61 -72z" />
    <glyph glyph-name="D" unicode="D" horiz-adv-x="1025" 
d="M59 0v798h526c149 0 261 -2 356 -157c78 -129 84 -336 10 -466c-94 -167 -212 -175 -364 -175h-528zM348 196h92c90 0 170 -8 231 86c42 67 28 181 -8 239c-55 89 -122 81 -222 81h-93v-406z" />
    <glyph glyph-name="E" unicode="E" horiz-adv-x="936" 
d="M859 798v-196h-511v-111h448v-183h-448v-112h555v-196h-844v798h800z" />
    <glyph glyph-name="F" unicode="F" horiz-adv-x="930" 
d="M874 798v-196h-526v-103h446v-195h-446v-304h-289v798h815z" />
    <glyph glyph-name="G" unicode="G" horiz-adv-x="1106" 
d="M1047 614l-268 -68c-94 90 -203 98 -286 76c-77 -22 -136 -76 -162 -154c-20 -60 -12 -149 40 -214c64 -82 150 -93 215 -89c78 6 156 41 211 127h-190v166h445v-458h-255v76c-50 -48 -134 -85 -213 -97c-176 -27 -343 -1 -467 136c-95 106 -110 282 -77 387
c54 169 188 256 339 296c150 40 439 42 604 -103c36 -32 44 -49 64 -81z" />
    <glyph glyph-name="H" unicode="H" horiz-adv-x="1037" 
d="M692 798h289v-798h-289v289h-344v-289h-289v798h289v-277h344v277z" />
    <glyph glyph-name="I" unicode="I" horiz-adv-x="404" 
d="M59 798h289v-798h-289v798z" />
    <glyph glyph-name="J" unicode="J" horiz-adv-x="528" 
d="M183 798h289v-516c1 -72 1 -146 -69 -216c-70 -69 -165 -66 -246 -66h-124v196c85 0 121 -3 138 19c11 16 12 45 12 98v485z" />
    <glyph glyph-name="K" unicode="K" horiz-adv-x="971" 
d="M573 798h367l-277 -291l293 -507h-339l-172 299l-97 -90v-209h-289v798h289v-252z" />
    <glyph glyph-name="L" unicode="L" horiz-adv-x="795" 
d="M348 798v-602h424v-196h-713v798h289z" />
    <glyph glyph-name="M" unicode="M" horiz-adv-x="1304" 
d="M427 798c0 0 225 -411 228 -474c6 66 223 474 223 474h370v-798h-289v436c-11 -49 -35 -92 -47 -119l-149 -317h-213l-150 299c-32 63 -38 83 -52 135v-434h-289v798h368z" />
    <glyph glyph-name="N" unicode="N" horiz-adv-x="1016" 
d="M59 798h228l384 -401v401h289v-798h-262l-350 396v-396h-289v798z" />
    <glyph glyph-name="O" unicode="O" horiz-adv-x="1114" 
d="M494 821c124 14 379 -10 506 -167c93 -115 105 -277 69 -385c-52 -164 -167 -231 -316 -272c-160 -44 -442 -33 -591 100c-120 106 -143 261 -126 368c19 132 74 228 232 301c71 32 151 48 226 55zM368 542c-45 -74 -38 -214 -3 -273c56 -98 148 -109 218 -108
c73 2 135 25 178 114c37 73 30 214 -21 284c-59 83 -170 84 -224 76c-52 -7 -108 -30 -148 -93z" />
    <glyph glyph-name="P" unicode="P" horiz-adv-x="948" 
d="M605 798c106 0 214 -6 288 -137c41 -76 34 -178 -9 -250c-77 -130 -176 -125 -288 -125h-248v-286h-289v798h546zM348 481h132c61 0 114 -4 136 30c11 18 11 39 2 56c-22 40 -76 35 -141 35h-129v-121z" />
    <glyph glyph-name="Q" unicode="Q" horiz-adv-x="1107" 
d="M1001 143c53 -20 84 -25 122 -27h6l-63 -243c-112 9 -187 48 -297 127l-52 -10c-160 -30 -442 -38 -608 160c-82 97 -98 275 -60 383c60 177 202 245 349 276c159 34 427 20 583 -148c105 -114 108 -304 82 -398c-14 -48 -32 -75 -62 -120zM360 538
c-45 -75 -37 -208 -3 -267c56 -98 149 -109 218 -108c73 2 135 26 178 114c37 73 30 207 -21 278c-59 82 -169 83 -224 76c-52 -7 -107 -31 -148 -93z" />
    <glyph glyph-name="R" unicode="R" horiz-adv-x="983" 
d="M610 798c117 0 232 6 310 -123c44 -73 50 -166 12 -242c-35 -68 -82 -100 -154 -124l192 -309h-336l-165 298h-121v-298h-289v798h551zM348 473h159c62 0 124 -4 148 31c14 19 11 43 3 57c-24 45 -75 41 -160 41h-150v-129z" />
    <glyph glyph-name="S" unicode="S" horiz-adv-x="916" 
d="M888 577h-23h-262c-22 58 -71 67 -131 73c-27 3 -89 1 -113 -31c-7 -9 -13 -22 -7 -38c12 -31 64 -42 91 -49l207 -54c88 -24 198 -56 236 -155c24 -64 16 -148 -24 -209c-76 -115 -248 -140 -327 -140c-157 0 -382 25 -481 153c-16 21 -34 62 -38 110h309
c33 -62 86 -75 140 -79c33 -1 101 4 128 40c7 10 13 25 6 42c-13 36 -67 46 -98 55l-212 55c-84 22 -161 54 -199 151c-20 51 -16 143 20 197c72 101 205 126 286 126c89 0 218 -4 336 -56c51 -24 98 -62 126 -102c16 -22 27 -51 30 -89z" />
    <glyph glyph-name="T" unicode="T" horiz-adv-x="893" 
d="M863 798v-196h-271v-602s-273 -1 -290 0v602h-271v196h832z" />
    <glyph glyph-name="U" unicode="U" horiz-adv-x="1048" 
d="M703 798h289v-460c0 -101 2 -176 -59 -239c-93 -96 -240 -125 -420 -125c-168 0 -266 38 -348 90c-110 70 -106 173 -106 269v465h289v-415c0 -79 -10 -135 75 -183c59 -34 158 -33 212 1c74 47 68 104 68 181v416z" />
    <glyph glyph-name="V" unicode="V" horiz-adv-x="970" 
d="M352 0l-334 798h302l154 -400s10 -24 14 -44c3 20 13 44 13 44l154 400h303l-334 -798h-272z" />
    <glyph glyph-name="W" unicode="W" horiz-adv-x="1439" 
d="M586 798h282l126 -365s10 -35 15 -69c6 33 17 69 17 69l110 365h290l-251 -798h-269l-153 390s-10 30 -16 65c-5 -34 -18 -67 -18 -67l-144 -388h-271l-279 798h293l134 -384s13 -43 15 -65c3 27 14 64 14 64z" />
    <glyph glyph-name="X" unicode="X" horiz-adv-x="1076" 
d="M412 798l48 -61c40 -52 58 -74 82 -131c24 60 50 88 94 152l28 40h355l-299 -375l343 -423h-374l-111 140c-23 34 -27 52 -34 81c-13 -30 -18 -46 -42 -80l-102 -141h-374l338 421l-307 377h355z" />
    <glyph glyph-name="Y" unicode="Y" horiz-adv-x="1055" 
d="M376 0v247l-359 551h347l120 -196c16 -26 35 -73 44 -102c9 29 28 76 43 102l121 196h347l-359 -551v-247h-304z" />
    <glyph glyph-name="Z" unicode="Z" horiz-adv-x="1031" 
d="M975 798v-196l-478 -406h478v-196h-916v195l496 407h-476v196h896z" />
    <glyph glyph-name="bracketleft" unicode="[" horiz-adv-x="355" 
d="M190 749v-818h109v-54h-240v921h240v-49h-109z" />
    <glyph glyph-name="backslash" unicode="\" horiz-adv-x="603" 
d="M570 0h-215l-318 798h214z" />
    <glyph glyph-name="bracketright" unicode="]" horiz-adv-x="357" 
d="M60 749v49h240v-921h-240v54h110v818h-110z" />
    <glyph glyph-name="asciicircum" unicode="^" horiz-adv-x="470" 
d="M326 831l123 -165h-142l-66 88l-66 -88h-142l123 165h170z" />
    <glyph glyph-name="underscore" unicode="_" horiz-adv-x="569" 
d="M629 -156h-592v69h592v-69z" />
    <glyph glyph-name="grave" unicode="`" horiz-adv-x="363" 
d="M25 829h202l107 -163h-131z" />
    <glyph glyph-name="a" unicode="a" horiz-adv-x="916" 
d="M902 0l-303 -1c-11 17 -11 53 -11 53c-146 -72 -316 -88 -447 -42l-8 5c-91 46 -118 120 -98 199c30 116 145 134 260 148c58 6 87 9 151 12c53 2 137 -2 137 -2c-5 38 -13 63 -51 80c-34 15 -160 20 -195 -2c-22 -15 -30 -31 -31 -59h-30h-202c0 67 4 92 39 132
c61 72 173 79 335 79c202 0 314 -15 377 -84c37 -40 31 -103 31 -150v-247c0 -55 15 -95 46 -121zM438 252c-83 -1 -120 2 -139 -31c-5 -10 0 -33 6 -41c31 -44 93 -40 131 -35c68 10 119 35 143 109z" />
    <glyph glyph-name="b" unicode="b" horiz-adv-x="883" 
d="M59 798h264v-262c113 78 279 86 387 29c118 -63 148 -181 148 -280c0 -102 -35 -201 -158 -266c-102 -54 -250 -50 -377 37v-56h-264v798zM356 388c-37 -31 -43 -80 -40 -110c5 -43 27 -74 66 -93c40 -20 110 -18 146 3c40 23 56 66 57 99c2 38 -11 81 -52 111
c-35 26 -101 26 -137 13c-14 -5 -28 -13 -40 -23z" />
    <glyph glyph-name="c" unicode="c" horiz-adv-x="907" 
d="M884 394l1 -6l-273 -30l-8 11c-10 15 -24 28 -33 37c-44 36 -118 43 -168 24c-59 -23 -88 -65 -97 -121c-7 -39 8 -91 54 -129c43 -35 123 -43 173 -23c40 16 63 31 84 75l265 -24l-1 -5c-25 -111 -135 -170 -225 -196c-135 -43 -399 -35 -540 85c-80 68 -98 168 -83 246
c27 123 86 185 228 235c143 48 396 46 541 -74c27 -22 58 -55 82 -105z" />
    <glyph glyph-name="d" unicode="d" horiz-adv-x="884" 
d="M827 0h-263v56c-128 -87 -276 -91 -378 -37c-122 65 -158 164 -158 266c0 99 30 217 148 280c109 57 274 49 388 -29v262h263v-798zM490 411c-36 13 -102 13 -137 -13c-40 -30 -54 -73 -52 -111c1 -33 17 -76 57 -99c36 -21 106 -23 146 -3c40 19 61 50 66 93
c4 30 -3 79 -40 110c-12 10 -26 18 -40 23z" />
    <glyph glyph-name="e" unicode="e" horiz-adv-x="921" 
d="M896 257v-10h-585c4 -32 41 -75 84 -90c38 -12 132 -16 178 10c29 18 33 25 41 35l261 -25l-2 -5c-57 -131 -217 -169 -300 -181c-114 -14 -355 -22 -477 127c-65 80 -78 167 -48 260c40 124 136 179 251 208c121 30 376 26 501 -95c68 -66 95 -163 96 -234zM425 456
c-52 -6 -97 -29 -118 -91h311c-40 87 -136 100 -193 91z" />
    <glyph glyph-name="f" unicode="f" horiz-adv-x="444" 
d="M426 798v-164h-39c-37 0 -35 -38 -35 -53h74v-165h-74v-416h-264v416h-66v165h66c0 85 -4 146 29 181c39 42 85 36 178 36h131z" />
    <glyph glyph-name="g" unicode="g" horiz-adv-x="895" 
d="M576 529v52h263v-462c0 -88 8 -182 -68 -256c-85 -84 -201 -92 -348 -92s-266 21 -334 122c-9 12 -26 48 -26 107h270c1 -15 6 -28 14 -41c27 -44 106 -32 132 -29c32 3 69 15 87 51c10 22 10 76 10 99c-96 -68 -263 -78 -370 -30c-98 45 -151 110 -169 198
c-14 70 -4 175 65 246c83 89 214 118 310 104c44 -5 106 -21 164 -69zM333 376c-24 -23 -31 -58 -26 -79c6 -32 29 -53 61 -68c44 -20 117 -23 161 2c30 17 46 47 49 73c2 29 -9 54 -34 75c-37 34 -113 40 -147 32c-28 -7 -47 -17 -64 -35z" />
    <glyph glyph-name="h" unicode="h" horiz-adv-x="898" 
d="M59 798h264v-276c129 96 295 97 404 43c116 -59 116 -154 116 -256v-309h-264v248c0 53 6 127 -61 163c-33 18 -98 18 -135 -6c-67 -41 -60 -88 -60 -172v-233h-264v798z" />
    <glyph glyph-name="i" unicode="i" horiz-adv-x="378" 
d="M59 798h264v-146h-264v146zM59 581h264v-581h-264v581z" />
    <glyph glyph-name="j" unicode="j" horiz-adv-x="388" 
d="M69 798h264v-146h-264v146zM69 581h264v-488v-70c0 -63 5 -127 -39 -171c-61 -61 -125 -54 -206 -54h-86v184c48 0 67 14 67 43v62v494z" />
    <glyph glyph-name="k" unicode="k" horiz-adv-x="890" 
d="M59 798h264v-388l189 171h342l-233 -200l247 -381h-304l-143 211l-98 -82v-129h-264v798z" />
    <glyph glyph-name="l" unicode="l" horiz-adv-x="378" 
d="M59 798h264v-798h-264v798z" />
    <glyph glyph-name="m" unicode="m" horiz-adv-x="1419" 
d="M1363 0h-264v238c0 60 1 128 -54 160c-38 23 -106 23 -145 0c-63 -35 -57 -92 -57 -180v-218h-264v239c0 68 2 130 -61 165c-33 18 -101 19 -137 -6c-64 -42 -58 -108 -58 -187v-211h-264v581h264v-69c125 90 253 107 356 74c42 -13 83 -42 126 -90
c133 116 303 126 418 81c97 -38 140 -107 140 -214v-363z" />
    <glyph glyph-name="n" unicode="n" horiz-adv-x="898" 
d="M59 581h264v-59c129 96 295 97 404 43c116 -59 116 -154 116 -256v-309h-264v248c0 53 6 127 -61 163c-33 18 -98 18 -135 -6c-67 -41 -60 -88 -60 -172v-233h-264v581z" />
    <glyph glyph-name="o" unicode="o" horiz-adv-x="924" 
d="M395 600c96 10 328 0 443 -141c63 -77 74 -162 48 -244c-40 -122 -135 -177 -249 -209c-138 -38 -381 -36 -519 84c-79 70 -97 162 -86 237c14 95 68 174 179 225c58 27 127 42 184 48zM360 413c-50 -39 -60 -90 -58 -130c4 -43 27 -87 71 -112c47 -28 115 -29 162 -8
c51 23 78 68 84 109c7 39 -9 94 -46 131c-43 39 -109 49 -150 40c-19 -4 -39 -12 -63 -30z" />
    <glyph glyph-name="p" unicode="p" horiz-adv-x="882" 
d="M59 581h264v-52c126 88 275 90 377 37c123 -65 158 -164 158 -266c0 -99 -30 -217 -148 -280c-108 -57 -274 -49 -387 29v-249h-264v781zM396 174c36 -13 102 -13 137 12c41 31 54 74 52 112c-1 32 -17 76 -57 99c-36 20 -106 23 -146 3c-39 -19 -61 -51 -66 -93
c-3 -30 3 -79 40 -111c12 -10 26 -17 40 -22z" />
    <glyph glyph-name="q" unicode="q" horiz-adv-x="881" 
d="M824 -200h-264v249c-114 -78 -279 -86 -387 -29c-118 63 -148 181 -148 280c0 102 35 201 158 266c102 53 251 51 377 -37v52h264v-781zM527 196c37 32 43 81 40 111c-6 42 -27 74 -66 93c-40 20 -110 17 -146 -3c-40 -23 -56 -67 -57 -99c-2 -38 11 -81 51 -112
c36 -25 102 -25 138 -12c14 5 28 12 40 22z" />
    <glyph glyph-name="r" unicode="r" horiz-adv-x="533" 
d="M509 588v-225c-82 0 -135 -10 -186 -40v-323h-264v581h264v-66c17 21 45 43 89 60c17 6 65 13 97 13z" />
    <glyph glyph-name="s" unicode="s" horiz-adv-x="819" 
d="M777 397h-37h-125h-92c-3 10 -11 19 -16 26c-32 39 -122 32 -138 31c-21 -1 -48 -5 -56 -20c-3 -4 -5 -12 0 -21c10 -17 59 -26 94 -31c64 -9 101 -11 162 -24c91 -19 174 -35 207 -126c14 -43 6 -95 -28 -135c-110 -132 -370 -120 -452 -108c-50 8 -222 55 -264 158
c-1 3 -11 24 -11 41h281c29 -51 82 -55 129 -51c28 3 56 8 66 24c3 5 6 13 1 21c-10 18 -50 26 -85 31c-57 10 -151 28 -151 28c-41 8 -175 34 -210 121c-14 39 -10 93 21 137c71 103 266 103 321 103h22c91 0 283 -25 344 -154c3 -9 16 -35 17 -51z" />
    <glyph glyph-name="t" unicode="t" horiz-adv-x="474" 
d="M340 751v-170h100v-165h-104v-174c0 -75 7 -80 64 -80h40v-162h-163c-64 0 -124 -7 -169 40c-41 44 -35 108 -35 165v211h-64v165h68v170h263z" />
    <glyph glyph-name="u" unicode="u" horiz-adv-x="898" 
d="M843 0h-264v63c-129 -96 -296 -98 -404 -43c-116 59 -116 154 -116 256v305h264v-244c0 -54 -6 -127 61 -163c32 -18 98 -18 135 6c67 41 60 88 60 172v229h264v-581z" />
    <glyph glyph-name="v" unicode="v" horiz-adv-x="819" 
d="M267 0l-255 581h289l92 -243c15 -43 17 -53 19 -66c3 13 3 23 19 66l91 243h289l-254 -581h-290z" />
    <glyph glyph-name="w" unicode="w" horiz-adv-x="1330" 
d="M665 314c-2 -15 -4 -19 -22 -58l-98 -256h-270l-263 581h289l92 -243c15 -43 19 -53 19 -66c0 13 3 23 19 66l91 243h286l92 -243c15 -43 19 -53 19 -66c0 13 3 23 19 66l91 243h289l-262 -581h-270l-97 254c-19 41 -20 45 -24 60z" />
    <glyph glyph-name="x" unicode="x" horiz-adv-x="988" 
d="M371 -1l-348 1l305 299l-288 282h341l115 -127l116 127h340l-288 -282l305 -299l-347 -1l-125 137z" />
    <glyph glyph-name="y" unicode="y" horiz-adv-x="820" 
d="M302 581l83 -208c17 -44 18 -55 26 -95c2 9 12 50 15 59l92 244h292l-247 -551c-96 -214 -138 -220 -331 -220h-124v180h110c44 0 44 14 36 35l-243 556h291z" />
    <glyph glyph-name="z" unicode="z" horiz-adv-x="879" 
d="M808 581v-152l-345 -241h361v-189h-765v164l323 231h-286v187h712z" />
    <glyph glyph-name="braceleft" unicode="{" horiz-adv-x="540" 
d="M501 824v-52c-37 -1 -96 -20 -130 -54c-40 -39 -35 -63 -35 -129v-58c0 -64 4 -123 -63 -169c-43 -34 -112 -48 -164 -54c153 -23 226 -42 226 -223v-53c0 -62 -7 -107 60 -153c38 -25 70 -34 106 -36v-48c-57 0 -174 12 -231 72c-50 53 -47 96 -47 164v58
c0 59 8 114 -59 157c-33 21 -78 29 -117 33v58c135 21 176 48 176 193v54c0 73 -2 146 86 196c59 35 120 44 192 44z" />
    <glyph glyph-name="bar" unicode="|" horiz-adv-x="232" 
d="M158 -123h-78v921h78v-921z" />
    <glyph glyph-name="braceright" unicode="}" horiz-adv-x="540" 
d="M242 780c88 -50 86 -123 86 -196v-54c0 -145 41 -172 176 -193v-58c-39 -4 -83 -12 -117 -33c-67 -43 -59 -98 -59 -157v-58c0 -68 3 -111 -47 -164c-57 -60 -174 -72 -231 -72v48c36 2 68 11 106 36c67 46 61 91 61 153v53c0 181 72 200 225 223c-51 6 -121 20 -164 54
c-67 46 -63 105 -63 169v58c0 66 5 90 -34 129c-35 34 -94 53 -131 54v52c73 0 133 -9 192 -44z" />
    <glyph glyph-name="asciitilde" unicode="~" horiz-adv-x="496" 
d="M391 816h76c-5 -49 -24 -107 -76 -134c-65 -32 -82 -3 -187 27c-20 5 -41 8 -57 -6c-7 -7 -14 -14 -21 -39h-78c6 51 25 107 79 138c50 28 93 11 148 -10l19 -7c32 -14 54 -23 75 -5c17 15 18 20 22 36z" />
    <glyph glyph-name="Adieresis" unicode="&#xc4;" horiz-adv-x="1044" 
d="M355 798h314l357 -798h-313l-44 100h-310l-44 -100h-308zM431 305h162l-82 252zM715 1009v-135h-167v135h167zM480 1009v-135h-167v135h167z" />
    <glyph glyph-name="Aring" unicode="&#xc5;" horiz-adv-x="1044" 
d="M356 798h314l357 -798h-313l-44 100h-310l-44 -100h-308zM432 305h162l-82 252zM477 1188c41 7 109 4 154 -44c40 -40 44 -109 34 -156s-36 -85 -87 -104c-41 -16 -118 -15 -161 17c-48 35 -61 92 -60 140c2 42 17 95 70 128c17 10 35 15 50 19zM445 1018
c3 -31 15 -55 42 -68c22 -11 46 -9 62 1c31 20 36 59 36 84c0 33 -7 60 -36 78c-20 12 -47 11 -65 3c-35 -18 -42 -65 -39 -98z" />
    <glyph glyph-name="Ccedilla" unicode="&#xc7;" horiz-adv-x="1147" 
d="M590 -26c-147 7 -324 47 -433 178c-84 101 -90 282 -55 390c52 161 198 238 323 265c169 37 442 19 595 -131c30 -29 41 -42 61 -72l-268 -77c-53 89 -127 118 -201 118c-56 0 -143 -10 -197 -90c-43 -67 -50 -195 -15 -272c35 -80 94 -110 165 -120c57 -8 158 0 214 65
c12 13 23 33 35 50l278 -72c-64 -147 -268 -217 -370 -227c-20 0 -42 -5 -66 -5l-32 -52c49 8 86 7 124 -21c28 -23 33 -52 33 -76c0 -36 -18 -65 -56 -90c-61 -37 -176 -18 -250 12l25 53c39 -14 107 -35 142 -17c16 11 25 18 25 36c0 14 -6 29 -16 38c-19 16 -55 10 -88 2
l-28 24z" />
    <glyph glyph-name="Eacute" unicode="&#xc9;" horiz-adv-x="936" 
d="M857 798v-196h-511v-111h448v-183h-448v-112h555v-196h-844v798h800zM468 874h-131l107 163h202z" />
    <glyph glyph-name="Ntilde" unicode="&#xd1;" horiz-adv-x="1016" 
d="M57 798h228l384 -401v401h289v-798h-263l-349 396v-396h-289v798zM636 1027h76c-4 -49 -23 -107 -76 -134c-65 -33 -81 -3 -186 27c-20 5 -42 7 -57 -6c-8 -7 -15 -14 -21 -39h-78c5 51 24 107 79 138c50 28 92 10 147 -10l19 -7c32 -14 55 -23 76 -5c17 15 18 20 21 36z
" />
    <glyph glyph-name="Odieresis" unicode="&#xd6;" horiz-adv-x="1114" 
d="M491 821c124 14 378 -10 506 -167c92 -115 105 -277 69 -385c-53 -164 -168 -231 -316 -272c-161 -44 -442 -33 -592 100c-119 106 -142 261 -126 368c19 132 75 228 233 301c71 32 150 48 226 55zM365 542c-46 -74 -38 -214 -3 -273c55 -98 148 -109 217 -108
c74 2 135 25 179 114c37 73 30 214 -21 284c-60 83 -170 84 -225 76c-51 -7 -107 -30 -147 -93zM754 1009v-135h-167v135h167zM519 1009v-135h-167v135h167z" />
    <glyph glyph-name="Udieresis" unicode="&#xdc;" horiz-adv-x="1048" 
d="M705 798h289v-460c0 -101 3 -176 -59 -239c-92 -96 -240 -125 -419 -125c-169 0 -267 38 -349 90c-110 70 -106 173 -106 269v465h289v-415c0 -79 -10 -135 75 -183c59 -34 159 -33 212 1c74 47 68 104 68 181v416zM733 1009v-135h-167v135h167zM498 1009v-135h-168v135
h168z" />
    <glyph glyph-name="aacute" unicode="&#xe1;" horiz-adv-x="916" 
d="M902 0l-303 -1c-11 17 -11 53 -11 53c-146 -72 -316 -88 -447 -42l-8 5c-91 46 -118 120 -98 199c30 116 145 134 260 148c58 6 87 9 151 12c53 2 137 -2 137 -2c-5 38 -13 63 -51 80c-34 15 -160 20 -195 -2c-22 -15 -30 -31 -31 -59h-30h-202c0 67 4 92 39 132
c61 72 173 79 335 79c202 0 314 -15 377 -84c37 -40 31 -103 31 -150v-247c0 -55 15 -95 46 -121zM438 252c-83 -1 -120 2 -139 -31c-5 -10 0 -33 6 -41c31 -44 93 -40 131 -35c68 10 119 35 143 109zM491 666h-131l108 163h202z" />
    <glyph glyph-name="agrave" unicode="&#xe0;" horiz-adv-x="916" 
d="M906 0l-302 -1c-11 17 -11 53 -11 53c-147 -72 -316 -88 -448 -42l-8 5c-90 46 -118 120 -98 199c30 116 145 134 260 148c58 6 87 9 152 12c52 2 136 -2 136 -2c-4 38 -12 63 -50 80c-35 15 -161 20 -195 -2c-23 -15 -31 -31 -32 -59h-30h-202c0 67 5 92 39 132
c62 72 173 79 335 79c202 0 315 -15 377 -84c37 -40 31 -103 31 -150v-247c0 -55 15 -95 46 -121zM442 252c-83 -1 -119 2 -138 -31c-6 -10 0 -33 5 -41c31 -44 94 -40 132 -35c68 10 118 35 143 109zM256 829h202l107 -163h-131z" />
    <glyph glyph-name="acircumflex" unicode="&#xe2;" horiz-adv-x="916" 
d="M902 0l-303 -1c-11 17 -11 53 -11 53c-146 -72 -316 -88 -447 -42l-8 5c-91 46 -118 120 -98 199c30 116 145 134 260 148c58 6 87 9 151 12c53 2 137 -2 137 -2c-5 38 -13 63 -51 80c-34 15 -160 20 -195 -2c-22 -15 -30 -31 -31 -59h-30h-202c0 67 4 92 39 132
c61 72 173 79 335 79c202 0 314 -15 377 -84c37 -40 31 -103 31 -150v-247c0 -55 15 -95 46 -121zM438 252c-83 -1 -120 2 -139 -31c-5 -10 0 -33 6 -41c31 -44 93 -40 131 -35c68 10 119 35 143 109zM527 831l123 -165h-142l-66 88l-66 -88h-142l123 165h170z" />
    <glyph glyph-name="adieresis" unicode="&#xe4;" horiz-adv-x="916" 
d="M902 0l-303 -1c-11 17 -11 53 -11 53c-146 -72 -316 -88 -447 -42l-8 5c-91 46 -118 120 -98 199c30 116 145 134 260 148c58 6 87 9 151 12c53 2 137 -2 137 -2c-5 38 -13 63 -51 80c-34 15 -160 20 -195 -2c-22 -15 -30 -31 -31 -59h-30h-202c0 67 4 92 39 132
c61 72 173 79 335 79c202 0 314 -15 377 -84c37 -40 31 -103 31 -150v-247c0 -55 15 -95 46 -121zM438 252c-83 -1 -120 2 -139 -31c-5 -10 0 -33 6 -41c31 -44 93 -40 131 -35c68 10 119 35 143 109zM645 801v-135h-167v135h167zM410 801v-135h-168v135h168z" />
    <glyph glyph-name="atilde" unicode="&#xe3;" horiz-adv-x="916" 
d="M903 0l-303 -1c-11 17 -11 53 -11 53c-146 -72 -316 -88 -447 -42l-8 5c-90 46 -118 120 -98 199c30 116 145 134 260 148c58 6 87 9 152 12c52 2 136 -2 136 -2c-5 38 -13 63 -51 80c-34 15 -160 20 -195 -2c-22 -15 -30 -31 -31 -59h-30h-202c0 67 4 92 39 132
c61 72 173 79 335 79c202 0 314 -15 377 -84c37 -40 31 -103 31 -150v-247c0 -55 15 -95 46 -121zM439 252c-83 -1 -120 2 -139 -31c-5 -10 0 -33 6 -41c31 -44 94 -40 132 -35c68 10 118 35 142 109zM585 816h76c-5 -49 -24 -107 -76 -134c-65 -32 -82 -3 -187 27
c-20 5 -41 8 -56 -6c-8 -7 -15 -14 -22 -39h-78c6 51 25 107 79 138c51 28 93 11 148 -10l19 -7c32 -14 54 -23 76 -5c16 15 17 20 21 36z" />
    <glyph glyph-name="aring" unicode="&#xe5;" horiz-adv-x="916" 
d="M902 0l-303 -1c-11 17 -11 53 -11 53c-146 -72 -316 -88 -447 -42l-8 5c-91 46 -118 120 -98 199c30 116 145 134 260 148c58 6 87 9 151 12c53 2 137 -2 137 -2c-5 38 -13 63 -51 80c-34 15 -160 20 -195 -2c-22 -15 -30 -31 -31 -59h-30h-202c0 67 4 92 39 132
c61 72 173 79 335 79c202 0 314 -15 377 -84c37 -40 31 -103 31 -150v-247c0 -55 15 -95 46 -121zM438 252c-83 -1 -120 2 -139 -31c-5 -10 0 -33 6 -41c31 -44 93 -40 131 -35c68 10 119 35 143 109zM403 980c41 8 109 4 154 -44c40 -40 45 -109 35 -156
c-11 -47 -36 -85 -88 -104c-41 -15 -118 -14 -160 17c-48 36 -62 93 -61 141c3 41 17 95 71 127c17 10 34 16 49 19zM372 810c2 -31 14 -54 41 -68c22 -11 47 -9 62 1c32 20 36 59 36 84c0 33 -7 60 -36 78c-20 12 -46 11 -64 3c-36 -17 -43 -64 -39 -98z" />
    <glyph glyph-name="ccedilla" unicode="&#xe7;" horiz-adv-x="998" 
d="M502 -16c-118 0 -246 36 -331 108c-81 68 -98 168 -83 246c27 123 86 185 228 235c143 48 396 46 541 -74c27 -22 58 -55 82 -105l1 -6l-274 -30l-8 11c-10 15 -23 28 -32 37c-45 36 -118 43 -168 24c-60 -23 -89 -65 -98 -121c-6 -39 8 -91 55 -129
c43 -35 123 -43 173 -23c39 16 63 31 84 75l264 -24l-1 -5c-24 -111 -135 -170 -224 -196c-39 -13 -88 -23 -143 -23l-38 -62c49 8 86 7 124 -21c28 -23 34 -52 34 -76c0 -36 -18 -65 -56 -90c-62 -37 -177 -18 -250 12l24 53c39 -14 107 -35 142 -17c17 11 26 18 26 36
c0 14 -7 29 -17 38c-19 16 -55 10 -88 2l-28 24z" />
    <glyph glyph-name="eacute" unicode="&#xe9;" horiz-adv-x="921" 
d="M895 257v-10h-585c4 -32 40 -75 84 -90c38 -12 132 -16 177 10c29 18 34 25 42 35l261 -25l-2 -5c-57 -131 -217 -169 -301 -181c-113 -14 -354 -22 -476 127c-65 80 -78 167 -48 260c40 124 136 179 251 208c121 30 376 26 501 -95c68 -66 95 -163 96 -234zM424 456
c-52 -6 -97 -29 -118 -91h311c-40 87 -136 100 -193 91zM494 666h-130l107 163h202z" />
    <glyph glyph-name="egrave" unicode="&#xe8;" horiz-adv-x="921" 
d="M891 257v-10h-585c3 -32 40 -75 84 -90c37 -12 131 -16 177 10c29 18 33 25 41 35l261 -25l-2 -5c-57 -131 -216 -169 -300 -181c-114 -14 -355 -22 -477 127c-64 80 -78 167 -48 260c41 124 137 179 252 208c120 30 376 26 501 -95c68 -66 95 -163 96 -234zM420 456
c-53 -6 -97 -29 -119 -91h312c-40 87 -136 100 -193 91zM239 829h202l107 -163h-131z" />
    <glyph glyph-name="ecircumflex" unicode="&#xea;" horiz-adv-x="921" 
d="M893 257v-10h-585c3 -32 40 -75 84 -90c38 -12 131 -16 177 10c29 18 34 25 41 35l262 -25l-3 -5c-56 -131 -216 -169 -300 -181c-114 -14 -355 -22 -476 127c-65 80 -78 167 -48 260c40 124 136 179 251 208c120 30 376 26 501 -95c68 -66 95 -163 96 -234zM422 456
c-53 -6 -97 -29 -118 -91h311c-40 87 -136 100 -193 91zM529 831l123 -165h-142l-66 88l-66 -88h-141l122 165h170z" />
    <glyph glyph-name="edieresis" unicode="&#xeb;" horiz-adv-x="921" 
d="M895 257v-10h-585c4 -32 40 -75 84 -90c38 -12 132 -16 177 10c29 18 34 25 42 35l261 -25l-2 -5c-57 -131 -217 -169 -301 -181c-113 -14 -354 -22 -476 127c-65 80 -78 167 -48 260c40 124 136 179 251 208c121 30 376 26 501 -95c68 -66 95 -163 96 -234zM424 456
c-52 -6 -97 -29 -118 -91h311c-40 87 -136 100 -193 91zM654 801v-135h-167v135h167zM419 801v-135h-168v135h168z" />
    <glyph glyph-name="iacute" unicode="&#xed;" horiz-adv-x="378" 
d="M59 581h264v-581h-264v581zM189 666h-131l107 163h202z" />
    <glyph glyph-name="igrave" unicode="&#xec;" horiz-adv-x="378" 
d="M59 581h264v-581h-264v581zM-13 829h202l107 -163h-131z" />
    <glyph glyph-name="icircumflex" unicode="&#xee;" horiz-adv-x="378" 
d="M59 581h264v-581h-264v581zM276 831l122 -165h-141l-66 88l-66 -88h-142l123 165h170z" />
    <glyph glyph-name="idieresis" unicode="&#xef;" horiz-adv-x="378" 
d="M59 581h264v-581h-264v581zM393 801v-135h-168v135h168zM157 801v-135h-167v135h167z" />
    <glyph glyph-name="ntilde" unicode="&#xf1;" horiz-adv-x="898" 
d="M61 581h264v-59c129 96 296 97 404 43c116 -59 116 -154 116 -256v-309h-264v248c0 53 6 127 -61 163c-32 18 -98 18 -135 -6c-67 -41 -60 -88 -60 -172v-233h-264v581zM605 816h76c-5 -49 -24 -107 -76 -134c-65 -32 -82 -3 -186 27c-21 5 -42 8 -57 -6
c-8 -7 -15 -14 -22 -39h-78c6 51 25 107 80 138c50 28 92 11 147 -10l19 -7c32 -14 55 -23 76 -5c16 15 18 20 21 36z" />
    <glyph glyph-name="oacute" unicode="&#xf3;" horiz-adv-x="924" 
d="M395 600c96 10 328 0 443 -141c63 -77 74 -162 48 -244c-40 -122 -135 -177 -249 -209c-138 -38 -381 -36 -519 84c-79 70 -97 162 -86 237c14 95 68 174 179 225c58 27 127 42 184 48zM360 413c-50 -39 -60 -90 -58 -130c4 -43 27 -87 71 -112c47 -28 115 -29 162 -8
c51 23 78 68 84 109c7 39 -9 94 -46 131c-43 39 -109 49 -150 40c-19 -4 -39 -12 -63 -30zM502 666h-130l107 163h202z" />
    <glyph glyph-name="ograve" unicode="&#xf2;" horiz-adv-x="924" 
d="M395 600c96 10 328 0 443 -141c63 -77 74 -162 48 -244c-40 -122 -135 -177 -249 -209c-138 -38 -381 -36 -519 84c-79 70 -97 162 -86 237c14 95 68 174 179 225c58 27 127 42 184 48zM360 413c-50 -39 -60 -90 -58 -130c4 -43 27 -87 71 -112c47 -28 115 -29 162 -8
c51 23 78 68 84 109c7 39 -9 94 -46 131c-43 39 -109 49 -150 40c-19 -4 -39 -12 -63 -30zM229 829h202l107 -163h-131z" />
    <glyph glyph-name="ocircumflex" unicode="&#xf4;" horiz-adv-x="924" 
d="M395 600c96 10 328 0 443 -141c63 -77 74 -162 48 -244c-40 -122 -135 -177 -249 -209c-138 -38 -381 -36 -519 84c-79 70 -97 162 -86 237c14 95 68 174 179 225c58 27 127 42 184 48zM360 413c-50 -39 -60 -90 -58 -130c4 -43 27 -87 71 -112c47 -28 115 -29 162 -8
c51 23 78 68 84 109c7 39 -9 94 -46 131c-43 39 -109 49 -150 40c-19 -4 -39 -12 -63 -30zM538 831l123 -165h-142l-66 88l-66 -88h-141l122 165h170z" />
    <glyph glyph-name="odieresis" unicode="&#xf6;" horiz-adv-x="924" 
d="M394 600c96 10 328 0 443 -141c63 -77 74 -162 48 -244c-40 -122 -135 -177 -249 -209c-138 -38 -382 -36 -519 84c-79 70 -97 162 -86 237c14 95 68 174 179 225c58 27 127 42 184 48zM359 413c-50 -39 -60 -90 -58 -130c4 -43 27 -87 71 -112c47 -28 115 -29 161 -8
c52 23 79 68 85 109c7 39 -9 94 -47 131c-42 39 -108 49 -149 40c-19 -4 -39 -12 -63 -30zM653 801v-135h-168v135h168zM417 801v-135h-167v135h167z" />
    <glyph glyph-name="otilde" unicode="&#xf5;" horiz-adv-x="924" 
d="M394 600c96 10 328 0 443 -141c63 -77 74 -162 48 -244c-40 -122 -135 -177 -249 -209c-138 -38 -382 -36 -519 84c-79 70 -97 162 -86 237c14 95 68 174 179 225c58 27 127 42 184 48zM359 413c-50 -39 -60 -90 -58 -130c4 -43 27 -87 71 -112c47 -28 115 -29 161 -8
c52 23 79 68 85 109c7 39 -9 94 -47 131c-42 39 -108 49 -149 40c-19 -4 -39 -12 -63 -30zM583 816h75c-4 -49 -23 -107 -75 -134c-65 -32 -82 -3 -187 27c-20 5 -41 8 -57 -6c-8 -7 -14 -14 -21 -39h-78c6 51 25 107 79 138c50 28 93 11 148 -10l18 -7c33 -14 55 -23 76 -5
c17 15 18 20 22 36z" />
    <glyph glyph-name="uacute" unicode="&#xfa;" horiz-adv-x="898" 
d="M842 0h-264v63c-129 -96 -296 -98 -404 -43c-116 59 -116 154 -116 256v305h263v-244c0 -54 -5 -127 62 -163c32 -18 98 -18 135 6c67 41 60 88 60 172v229h264v-581zM462 666h-131l108 163h202z" />
    <glyph glyph-name="ugrave" unicode="&#xf9;" horiz-adv-x="898" 
d="M842 0h-264v63c-129 -96 -296 -98 -404 -43c-116 59 -116 154 -116 256v305h263v-244c0 -54 -5 -127 62 -163c32 -18 98 -18 135 6c67 41 60 88 60 172v229h264v-581zM233 829h202l107 -163h-130z" />
    <glyph glyph-name="ucircumflex" unicode="&#xfb;" horiz-adv-x="898" 
d="M840 0h-263v63c-129 -96 -296 -98 -404 -43c-116 59 -116 154 -116 256v305h263v-244c0 -54 -5 -127 62 -163c32 -18 98 -18 135 6c67 41 60 88 60 172v229h263v-581zM527 831l123 -165h-142l-66 88l-66 -88h-142l123 165h170z" />
    <glyph glyph-name="udieresis" unicode="&#xfc;" horiz-adv-x="898" 
d="M843 0h-264v63c-129 -96 -296 -98 -404 -43c-116 59 -116 154 -116 256v305h264v-244c0 -54 -6 -127 61 -163c32 -18 98 -18 135 6c67 41 60 88 60 172v229h264v-581zM652 801v-135h-168v135h168zM416 801v-135h-167v135h167z" />
    <glyph glyph-name="degree" unicode="&#xb0;" horiz-adv-x="503" 
d="M423 615c36 -17 62 -32 70 -75c5 -19 -3 -53 -24 -73c-77 -80 -241 -56 -278 -50c-36 7 -89 28 -111 75c-10 24 -10 53 5 76c17 28 31 34 56 44c-32 14 -55 32 -61 67c-2 23 7 54 35 77c62 51 218 49 271 31c37 -12 81 -38 93 -81c4 -21 2 -44 -17 -63
c-12 -15 -23 -21 -39 -28zM219 686c-1 -10 3 -16 12 -23c16 -16 63 -15 82 -10c14 4 26 14 29 26c2 9 -2 15 -9 22c-19 17 -67 16 -84 9c-15 -5 -27 -14 -30 -24zM218 546c-4 -8 0 -18 6 -26c18 -19 65 -18 81 -14c18 3 39 10 44 27c4 8 0 14 -6 22c-19 22 -58 23 -81 19
c-15 -1 -39 -10 -44 -28z" />
    <glyph glyph-name="cent" unicode="&#xa2;" horiz-adv-x="908" 
d="M422 744h79v-59c113 -11 306 -50 386 -213l-268 -30c-43 67 -104 81 -163 76c-43 -5 -97 -25 -126 -79c-20 -37 -21 -93 0 -133c33 -60 78 -75 132 -81c68 -6 119 16 165 90l265 -26c-49 -137 -162 -193 -306 -225c-28 -6 -46 -10 -75 -12v-53h-89v52
c-76 8 -280 48 -355 193c-39 77 -36 189 7 263c78 135 232 165 333 174l15 1v62z" />
    <glyph glyph-name="sterling" unicode="&#xa3;" horiz-adv-x="662" 
d="M66 414h66c-11 21 -66 87 -56 179c-5 49 50 122 97 155c87 60 267 51 345 -17c50 -41 74 -90 82 -194h-145c-5 55 -22 133 -125 129c-79 -6 -129 -74 -90 -153c14 -25 35 -63 46 -99h155v-62h-132c12 -50 12 -80 2 -110c-19 -68 -87 -114 -112 -140c44 15 91 49 169 32
c47 -10 99 -32 205 18l44 -120c-38 -16 -114 -70 -234 -40c-112 31 -165 41 -260 -8l-56 110c25 20 51 30 86 75c57 77 22 146 9 183h-96v62z" />
    <glyph glyph-name="section" unicode="&#xa7;" horiz-adv-x="577" 
d="M417 472c6 -14 15 -21 25 -21c10 -3 20 1 28 9c12 11 11 44 10 53c-3 17 -10 28 -22 34c-9 4 -19 3 -27 -1c-24 -15 -18 -65 -14 -74zM426 596c16 3 83 3 112 -30c19 -24 21 -78 13 -102c-10 -33 -26 -47 -60 -56c-29 -7 -95 -10 -126 21c-31 25 -30 69 -27 96
c5 27 18 49 48 61c12 6 27 10 40 10zM431 798l-158 -388h-109l159 388h108zM117 676c7 -14 16 -21 26 -21c10 -3 19 1 27 9c12 11 12 45 10 54c-3 16 -9 28 -23 33c-9 5 -19 3 -25 -1c-25 -15 -19 -65 -15 -74zM127 800c15 4 83 4 111 -30c19 -23 22 -78 14 -101
c-10 -34 -28 -47 -61 -55c-29 -8 -94 -11 -126 19c-30 25 -30 69 -26 96c5 28 18 49 48 61c12 6 26 10 40 10z" />
    <glyph glyph-name="bullet" unicode="&#x2022;" horiz-adv-x="393" 
d="M69 470h264v-211h-264v211z" />
    <glyph glyph-name="germandbls" unicode="&#xdf;" horiz-adv-x="501" 
d="M273 798v-38c82 -2 169 -21 183 -124v-2h-129c-9 24 -21 38 -54 42v-60l48 -6c36 -3 118 -10 141 -68c11 -29 8 -74 -21 -106c-47 -51 -114 -62 -165 -69v-65h-44v65c-43 6 -145 15 -190 87c-14 24 -15 34 -15 52h137l1 -3c12 -32 33 -41 66 -45v75l-73 11
c-32 3 -87 7 -113 52c-14 25 -14 55 -3 81c18 44 64 63 98 72c32 9 52 11 90 11v38h43zM180 658c-5 -7 -4 -14 -1 -18c9 -18 41 -19 51 -19v55c-21 0 -40 -1 -50 -18zM276 458c4 0 6 0 11 1c5 2 9 3 10 3c10 6 17 12 20 18c7 12 7 23 3 30c-9 18 -28 19 -44 20v-72z" />
    <glyph glyph-name="trademark" unicode="&#x2122;" horiz-adv-x="483" 
d="M229 798h39v-30c57 -6 153 -25 193 -106l-134 -16c-21 34 -52 42 -81 38c-22 -2 -48 -12 -63 -39c-10 -19 -11 -47 0 -67c16 -30 39 -37 66 -40c33 -3 59 8 82 45l132 -13c-24 -69 -80 -97 -153 -112c-13 -4 -22 -6 -37 -6v-28h-44v27c-38 4 -141 24 -178 97
c-20 38 -18 94 4 131c39 68 116 82 166 87l8 1v31z" />
    <glyph glyph-name="acute" unicode="&#xb4;" horiz-adv-x="373" 
d="M185 666h-130l107 163h202z" />
    <glyph glyph-name="dieresis" unicode="&#xa8;" horiz-adv-x="460" 
d="M436 801v-135h-167v135h167zM201 801v-135h-168v135h168z" />
    <glyph glyph-name="AE" unicode="&#xc6;" horiz-adv-x="723" 
d="M672 602h-107c0 -45 14 -62 20 -67c18 -20 55 -31 87 -33v-92c-53 0 -111 -3 -169 29c-119 63 -120 155 -120 255v104h289v-196zM337 602h-107c0 -45 14 -62 20 -67c18 -20 55 -31 87 -33v-92c-52 0 -110 -3 -168 29c-120 63 -121 155 -121 255v104h289v-196z" />
    <glyph glyph-name="infinity" unicode="&#x221e;" horiz-adv-x="820" 
d="M301 581l83 -208c17 -44 18 -55 26 -95c2 9 12 50 15 59l92 244h292l-248 -551c-96 -214 -137 -220 -330 -220h-124v180h110c44 0 44 14 36 35l-243 556h291zM417 666h-130l107 163h202z" />
    <glyph glyph-name="ordfeminine" unicode="&#xaa;" horiz-adv-x="481" 
d="M33 500l151 23c33 -23 67 -23 94 -13c30 13 37 38 37 68c-66 -42 -169 -47 -227 -19c-40 19 -59 48 -63 85c-5 31 3 73 42 106c59 49 203 57 261 38c58 -17 103 -42 123 -109c13 -46 13 -142 -34 -197c-57 -68 -177 -78 -234 -70c-42 4 -116 23 -150 88zM191 703
c-16 -8 -22 -20 -24 -31c-1 -11 6 -22 16 -32c21 -18 65 -16 88 -7c17 4 35 14 40 31c4 9 2 18 -5 26c-17 21 -60 22 -75 21c-13 -1 -28 -1 -40 -8z" />
    <glyph glyph-name="ordmasculine" unicode="&#xba;" horiz-adv-x="487" 
d="M209 796c66 6 165 -1 218 -71c41 -50 42 -150 25 -202c-20 -58 -59 -87 -117 -102c-65 -17 -189 -21 -255 39c-53 49 -55 143 -48 191c10 55 32 97 94 125c20 9 56 18 83 20zM176 648c-5 -27 -3 -107 28 -135c19 -16 47 -17 66 -11c32 11 41 36 46 62c3 20 8 102 -29 132
c-19 17 -46 19 -65 12c-31 -12 -40 -34 -46 -60z" />
    <glyph glyph-name="ae" unicode="&#xe6;" horiz-adv-x="391" 
d="M342 602h-108c0 -45 15 -62 20 -67c18 -20 55 -31 88 -33v-92c-53 0 -111 -3 -169 29c-119 63 -121 155 -121 255v104h290v-196z" />
    <glyph glyph-name="exclamdown" unicode="&#xa1;" horiz-adv-x="314" 
d="M254 798v-362h-135v239c-6 -3 -24 -13 -62 -20l-3 -1v85c7 2 46 14 79 39c13 10 17 16 21 20h100z" />
    <glyph glyph-name="guillemotleft" unicode="&#xab;" horiz-adv-x="603" 
d="M309 523l240 152v-196l-101 -76l101 -76v-196l-240 151v241zM42 523l240 152v-196l-101 -76l101 -76v-196l-240 151v241z" />
    <glyph glyph-name="guillemotright" unicode="&#xbb;" horiz-adv-x="604" 
d="M289 282l-240 -151v196l102 76l-102 76v196l240 -152v-241zM556 282l-240 -151v196l101 76l-101 76v196l240 -152v-241z" />
    <glyph glyph-name="Agrave" unicode="&#xc0;" horiz-adv-x="1044" 
d="M356 798h314l357 -798h-313l-44 100h-310l-44 -100h-308zM432 305h162l-82 252zM285 1037h202l107 -163h-131z" />
    <glyph glyph-name="Atilde" unicode="&#xc3;" horiz-adv-x="1044" 
d="M358 798h314l357 -798h-312l-45 100h-309l-45 -100h-308zM434 305h162l-81 252zM636 1027h76c-4 -49 -23 -107 -76 -134c-65 -33 -81 -3 -186 27c-20 5 -42 7 -57 -6c-8 -7 -15 -14 -21 -39h-78c5 51 24 107 79 138c50 28 92 10 147 -10l19 -7c32 -14 55 -23 76 -5
c17 15 18 20 21 36z" />
    <glyph glyph-name="Otilde" unicode="&#xd5;" horiz-adv-x="1114" 
d="M491 821c124 14 378 -10 506 -167c92 -115 105 -277 69 -385c-53 -164 -168 -231 -316 -272c-161 -44 -442 -33 -592 100c-119 106 -142 261 -126 368c19 132 75 228 233 301c71 32 150 48 226 55zM365 542c-46 -74 -38 -214 -3 -273c55 -98 148 -109 217 -108
c74 2 135 25 179 114c37 73 30 214 -21 284c-60 83 -170 84 -225 76c-51 -7 -107 -30 -147 -93zM705 1027h76c-4 -49 -23 -107 -76 -134c-64 -33 -81 -3 -186 27c-20 5 -41 7 -57 -6c-8 -7 -14 -14 -21 -39h-78c5 51 24 107 79 138c50 28 93 10 147 -10l19 -7
c33 -14 55 -23 76 -5c17 15 18 20 21 36z" />
    <glyph glyph-name="endash" unicode="&#x2013;" horiz-adv-x="567" 
d="M509 425v-216h-430v216h430z" />
    <glyph glyph-name="emdash" unicode="&#x2014;" horiz-adv-x="679" 
d="M613 425v-216h-542v216h542z" />
    <glyph glyph-name="quotedblleft" unicode="&#x201c;" horiz-adv-x="723" 
d="M672 410h-289v103c0 101 1 192 120 256c58 31 116 29 169 29v-93c-32 -2 -69 -12 -87 -32c-6 -6 -20 -22 -20 -67h107v-196zM337 410h-289v103c0 101 1 192 121 256c58 31 116 29 168 29v-93c-32 -2 -69 -12 -87 -32c-6 -6 -20 -22 -20 -67h107v-196z" />
    <glyph glyph-name="quotedblright" unicode="&#x201d;" horiz-adv-x="723" 
d="M49 798h289v-104c0 -100 -1 -192 -120 -255c-58 -32 -116 -29 -169 -29v92c32 2 69 13 87 33c6 5 20 22 20 67h-107v196zM384 798h289v-104c0 -100 -1 -192 -121 -255c-58 -32 -116 -29 -168 -29v92c32 2 69 13 87 33c6 5 20 22 20 67h-107v196z" />
    <glyph glyph-name="quoteleft" unicode="&#x2018;" horiz-adv-x="391" 
d="M342 410h-290v103c0 101 2 192 121 256c58 31 116 29 169 29v-93c-33 -2 -70 -12 -88 -32c-5 -6 -20 -22 -20 -67h108v-196z" />
    <glyph glyph-name="quoteright" unicode="&#x2019;" horiz-adv-x="397" 
d="M57 798h289v-104c0 -100 -1 -192 -121 -255c-58 -32 -116 -29 -168 -29v92c32 2 69 13 87 33c6 5 20 22 20 67h-107v196z" />
    <glyph glyph-name="divide" unicode="&#xf7;" horiz-adv-x="386" 
d="M330 798l-157 -388h-109l158 388h108z" />
    <glyph glyph-name="ydieresis" unicode="&#xff;" horiz-adv-x="820" 
d="M301 581l83 -208c17 -44 18 -55 26 -95c2 9 12 50 15 59l92 244h292l-248 -551c-96 -214 -137 -220 -330 -220h-124v180h110c44 0 44 14 36 35l-243 556h291zM609 801v-135h-167v135h167zM374 801v-135h-168v135h168z" />
    <glyph glyph-name="Ydieresis" unicode="&#x178;" horiz-adv-x="1055" 
d="M374 0v247l-359 551h347l120 -196c16 -26 35 -73 44 -102c9 29 28 76 43 102l121 196h347l-360 -551v-247h-303zM531 874h-130l107 163h202z" />
    <glyph glyph-name="fraction" unicode="&#x2044;" horiz-adv-x="1055" 
d="M375 0v247l-359 551h347l120 -196c16 -26 35 -73 44 -102c9 29 28 76 43 102l121 196h347l-359 -551v-247h-304zM727 1009v-135h-168v135h168zM491 1009v-135h-167v135h167z" />
    <glyph glyph-name="currency" unicode="&#xa4;" horiz-adv-x="503" 
d="M46 423c0 79 58 177 174 212l30 10c2 0 54 13 59 35c2 8 0 15 -5 22c-12 11 -64 10 -74 8c-36 -7 -42 -19 -51 -47l-125 10c4 87 93 125 169 125c87 0 172 6 210 -46c19 -25 26 -77 15 -107c-21 -51 -90 -68 -127 -77l-53 -13c-12 -3 -31 -9 -37 -13
c-16 -6 -32 -19 -32 -26h254v-93h-407z" />
    <glyph glyph-name="guilsinglleft" unicode="&#x2039;" horiz-adv-x="503" 
d="M400 616c32 -9 59 -22 70 -58c8 -27 2 -60 -20 -87c-54 -66 -200 -64 -256 -59c-41 3 -127 23 -161 88c-5 10 -6 15 -8 22l136 22c30 -41 69 -45 100 -42c15 1 52 8 62 29c3 7 4 17 -2 26c-12 19 -46 17 -72 17h-111v76h105c24 0 56 -3 68 14c4 5 6 11 4 20
c-2 10 -13 18 -24 22c-13 6 -77 9 -97 -2c-6 -3 -6 -4 -13 -10c-2 -2 -7 -8 -7 -8l-137 8l1 4c14 54 54 78 104 90c63 16 227 21 292 -44c21 -22 27 -52 20 -75c-8 -27 -25 -43 -54 -53z" />
    <glyph glyph-name="guilsinglright" unicode="&#x203a;" horiz-adv-x="503" 
d="M412 798v-3v-206h57v-95h-57v-58h-136v58h-237v102l217 202h156zM161 588h115v110z" />
    <glyph glyph-name="fi" unicode="&#xfb01;" horiz-adv-x="503" 
d="M81 798h370l-13 -83h-253l-6 -49c51 14 199 34 263 -42c28 -35 27 -77 12 -108c-42 -89 -169 -93 -226 -93h-11c-37 0 -133 9 -175 75c-3 5 -12 22 -12 22l130 36c35 -44 72 -49 111 -41c18 4 43 13 48 35c4 11 0 23 -12 34c-26 22 -98 19 -126 8l-9 -5l-124 12z" />
    <glyph glyph-name="fl" unicode="&#xfb02;" horiz-adv-x="503" 
d="M452 703l-142 -19s-2 5 -8 11c-7 7 -11 10 -19 13c-20 11 -58 6 -77 -9c-23 -17 -31 -41 -27 -68c60 35 170 40 234 10c39 -20 56 -47 59 -83c2 -32 -16 -76 -53 -104c-79 -60 -221 -50 -279 -27c-60 25 -95 85 -104 132c-10 57 -4 129 60 185c66 61 200 63 268 43
c39 -11 79 -37 88 -84zM180 547c-3 -12 2 -24 12 -34c28 -24 74 -19 99 -12c19 8 33 17 36 34c2 12 -3 22 -14 30c-22 18 -82 16 -102 11c-16 -8 -28 -18 -31 -29z" />
    <glyph glyph-name="daggerdbl" unicode="&#x2021;" horiz-adv-x="481" 
d="M445 798c8 -69 -12 -131 -88 -194l-24 -19c-58 -50 -85 -83 -93 -149h-155c2 84 40 140 135 202l58 36c20 10 20 16 23 37h-256v87h400z" />
    <glyph glyph-name="periodcentered" unicode="&#xb7;" horiz-adv-x="497" 
d="M198 0h65l-48 -78c50 8 86 7 124 -21c28 -23 35 -52 34 -76c-4 -36 -18 -65 -56 -90c-61 -37 -176 -18 -250 12l25 53c39 -14 107 -35 141 -17c17 11 23 18 26 36c2 14 -7 29 -17 38c-19 16 -54 10 -88 2l-28 24z" />
    <glyph glyph-name="Acircumflex" unicode="&#xc2;" horiz-adv-x="1044" 
d="M356 798h314l357 -798h-313l-44 100h-310l-44 -100h-308zM432 305h162l-82 252zM599 1039l123 -165h-142l-65 88l-66 -88h-142l123 165h169z" />
    <glyph glyph-name="Ecircumflex" unicode="&#xca;" horiz-adv-x="936" 
d="M878 798v-196h-511v-111h448v-183h-448v-112h555v-196h-844v798h800zM563 1039l122 -165h-141l-66 88l-66 -88h-142l123 165h170z" />
    <glyph glyph-name="Aacute" unicode="&#xc1;" horiz-adv-x="1044" 
d="M359 798h314l357 -798h-312l-45 100h-309l-45 -100h-308zM435 305h162l-81 252zM544 874h-131l107 163h202z" />
    <glyph glyph-name="Edieresis" unicode="&#xcb;" horiz-adv-x="936" 
d="M878 798v-196h-511v-111h448v-183h-448v-112h555v-196h-844v798h800zM676 1009v-135h-167v135h167zM441 1009v-135h-168v135h168z" />
    <glyph glyph-name="Egrave" unicode="&#xc8;" horiz-adv-x="936" 
d="M878 798v-196h-511v-111h448v-183h-448v-112h555v-196h-844v798h800zM294 1037h202l107 -163h-131z" />
    <glyph glyph-name="Iacute" unicode="&#xcd;" horiz-adv-x="404" 
d="M59 798h289v-798h-289v798zM213 874h-130l107 163h202z" />
    <glyph glyph-name="Icircumflex" unicode="&#xce;" horiz-adv-x="404" 
d="M59 798h289v-798h-289v798zM288 1039l123 -165h-142l-66 88l-66 -88h-141l122 165h170z" />
    <glyph glyph-name="Idieresis" unicode="&#xcf;" horiz-adv-x="404" 
d="M59 798h289v-798h-289v798zM407 1009v-135h-167v135h167zM172 1009v-135h-168v135h168z" />
    <glyph glyph-name="Igrave" unicode="&#xcc;" horiz-adv-x="404" 
d="M59 798h289v-798h-289v798zM-13 1037h202l107 -163h-131z" />
    <glyph glyph-name="Oacute" unicode="&#xd3;" horiz-adv-x="1114" 
d="M490 821c124 14 378 -10 506 -167c92 -115 104 -277 69 -385c-53 -164 -168 -231 -316 -272c-161 -44 -442 -33 -592 100c-119 106 -142 261 -126 368c19 132 75 228 232 301c72 32 151 48 227 55zM364 542c-46 -74 -38 -214 -4 -273c56 -98 149 -109 218 -108
c74 2 135 25 179 114c37 73 30 214 -22 284c-59 83 -169 84 -224 76c-51 -7 -107 -30 -147 -93zM577 874h-131l108 163h202z" />
    <glyph glyph-name="Ocircumflex" unicode="&#xd4;" horiz-adv-x="1114" 
d="M491 821c124 14 378 -10 506 -167c92 -115 105 -277 69 -385c-53 -164 -168 -231 -316 -272c-161 -44 -442 -33 -592 100c-119 106 -142 261 -126 368c19 132 75 228 233 301c71 32 150 48 226 55zM365 542c-46 -74 -38 -214 -3 -273c55 -98 148 -109 217 -108
c74 2 135 25 179 114c37 73 30 214 -21 284c-60 83 -170 84 -225 76c-51 -7 -107 -30 -147 -93zM642 1039l123 -165h-142l-66 88l-66 -88h-142l123 165h170z" />
    <glyph glyph-name="Ograve" unicode="&#xd2;" horiz-adv-x="1114" 
d="M488 821c124 14 378 -10 505 -167c93 -115 105 -277 70 -385c-53 -164 -168 -231 -316 -272c-161 -44 -442 -33 -592 100c-119 106 -143 261 -126 368c19 132 75 228 232 301c72 32 151 48 227 55zM362 542c-46 -74 -38 -214 -4 -273c56 -98 149 -109 218 -108
c74 2 135 25 178 114c37 73 31 214 -21 284c-59 83 -169 84 -224 76c-51 -7 -107 -30 -147 -93zM342 1037h202l107 -163h-131z" />
    <glyph glyph-name="Uacute" unicode="&#xda;" horiz-adv-x="1048" 
d="M696 798h289v-460c0 -101 3 -176 -59 -239c-92 -96 -240 -125 -419 -125c-169 0 -267 38 -349 90c-110 70 -106 173 -106 269v465h290v-415c0 -79 -11 -135 74 -183c59 -34 159 -33 212 1c74 47 68 104 68 181v416zM530 874h-130l107 163h202z" />
    <glyph glyph-name="Ucircumflex" unicode="&#xdb;" horiz-adv-x="1048" 
d="M703 798h289v-460c0 -101 2 -176 -59 -239c-93 -96 -240 -125 -420 -125c-168 0 -266 38 -348 90c-110 70 -106 173 -106 269v465h289v-415c0 -79 -10 -135 75 -183c59 -34 158 -33 212 1c74 47 68 104 68 181v416zM612 1039l122 -165h-141l-66 88l-66 -88h-142l123 165
h170z" />
    <glyph glyph-name="Ugrave" unicode="&#xd9;" horiz-adv-x="1048" 
d="M700 798h289v-460c0 -101 2 -176 -59 -239c-93 -96 -240 -125 -420 -125c-168 0 -267 38 -348 90c-111 70 -106 173 -106 269v465h289v-415c0 -79 -10 -135 75 -183c59 -34 158 -33 212 1c73 47 68 104 68 181v416zM345 1037h202l107 -163h-131z" />
    <glyph glyph-name="dotlessi" unicode="&#x131;" horiz-adv-x="378" 
d="M59 581h264v-581h-264v581z" />
    <glyph glyph-name="circumflex" unicode="&#x2c6;" horiz-adv-x="481" 
d="M331 831l123 -165h-141l-66 88l-66 -88h-142l123 165h169z" />
    <glyph glyph-name="tilde" unicode="&#x2dc;" horiz-adv-x="484" 
d="M382 816h76c-5 -49 -24 -107 -76 -134c-65 -32 -82 -3 -187 27c-20 5 -41 8 -57 -6c-7 -7 -14 -14 -21 -39h-78c6 51 25 107 79 138c51 28 93 11 148 -10l19 -7c32 -14 54 -23 75 -5c17 15 18 20 22 36z" />
    <glyph glyph-name="ring" unicode="&#x2da;" horiz-adv-x="379" 
d="M158 980c42 8 110 4 155 -44c40 -40 44 -109 34 -156s-36 -85 -87 -104c-41 -15 -118 -14 -161 17c-48 36 -61 93 -60 141c2 41 17 95 70 127c17 10 35 16 49 19zM127 810c2 -31 15 -54 42 -68c22 -11 46 -9 62 1c31 20 36 59 36 84c0 33 -7 60 -36 78
c-20 12 -47 11 -65 3c-35 -17 -42 -64 -39 -98z" />
    </font>
</defs>
</svg>
